<?xml version="1.0" ?><!DOCTYPE svg  PUBLIC '-//W3C//DTD SVG 1.1//EN'  'http://www.w3.org/Graphics/SVG/1.1/DTD/svg11.dtd'><svg height="512px" style="enable-background:new 0 0 512 512;" version="1.1" viewBox="0 0 512 512" width="512px" xml:space="preserve" xmlns="http://www.w3.org/2000/svg" xmlns:xlink="http://www.w3.org/1999/xlink"><g id="_x36_72_x2C__dierection_x2C__love_x2C__heart_x2C__wedding"><g><rect height="36.25" style="fill:#415A6B;" width="45.3" x="233.35" y="40.56"/><polygon points="241.017,48.394 278.65,48.394 278.65,40.56 233.35,40.56 233.35,76.81 241.017,76.81   " style="fill:#344C59;"/><path d="M284.69,106.33c9.47,0,17.14,7.66,17.14,17.11c0,17.12-17.14,26.86-34.25,43.98    c-17.12-17.12-34.23-26.86-34.23-43.98c0-9.45,7.66-17.11,17.11-17.11c8.56,0,12.84,4.28,17.12,12.83    C271.86,110.61,276.13,106.33,284.69,106.33z" style="fill:#EF3E5C;"/><g><g><g><path d="M245.683,128.44c0-9.364,7.524-16.96,16.856-17.098c-3.052-3.341-6.729-5.013-12.079-5.013       c-9.45,0-17.11,7.66-17.11,17.11c0,17.12,17.11,26.86,34.23,43.98c1.155-1.156,2.31-2.275,3.459-3.368       C257.342,151.677,245.683,142.571,245.683,128.44z" style="fill:#E42A53;"/></g></g></g><path d="M414.57,76.81l45.31,52.35l-45.31,65.44h-72.49h-63.43h-45.3h-63.43V76.81h63.43h45.3H414.57z     M301.83,123.44c0-9.45-7.67-17.11-17.14-17.11c-8.561,0-12.83,4.28-17.11,12.83c-4.28-8.55-8.561-12.83-17.12-12.83    c-9.45,0-17.11,7.66-17.11,17.11c0,17.12,17.11,26.86,34.23,43.98C284.69,150.3,301.83,140.56,301.83,123.44z M206.16,176.48    v-18.12h-18.12v18.12H206.16z M206.16,113.05V94.93h-18.12v18.12H206.16z" style="fill:#FFC230;"/><g><g><g><polygon points="180.92,86.477 244.35,86.477 289.65,86.477 422.938,86.477 414.57,76.81 278.65,76.81        233.35,76.81 169.92,76.81 169.92,194.6 180.92,194.6      " style="fill:#EAAA28;"/></g></g></g><rect height="126.85" style="fill:#415A6B;" width="45.3" x="233.35" y="312.4"/><polygon points="241.684,320.4 278.65,320.4 278.65,312.4 233.35,312.4 233.35,439.25 241.684,439.25   " style="fill:#344C59;"/><path d="M178.98,312.4h-45.31H97.43l-45.31-65.44l45.31-52.36h72.49h63.43h45.3h63.43V312.4h-63.43h-45.3    H178.98z M323.96,294.279V276.15h-18.12v18.129H323.96z M323.96,230.85v-18.13h-18.12v18.13H323.96z" style="fill:#F78F4B;"/><g><polygon points="101.965,203.189 174.455,203.189 237.885,203.189 283.186,203.189 342.08,203.189      342.08,194.6 278.65,194.6 233.35,194.6 169.92,194.6 97.43,194.6 52.12,246.96 57.439,254.643    " style="fill:#E27D44;"/></g><rect height="18.129" style="fill:#E27D44;" width="18.12" x="305.84" y="276.15"/><rect height="18.13" style="fill:#E27D44;" width="18.12" x="305.84" y="212.72"/><rect height="18.12" style="fill:#EAAA28;" width="18.12" x="188.04" y="158.36"/><rect height="18.12" style="fill:#EAAA28;" width="18.12" x="188.04" y="94.93"/><path d="M251.47,226.78h-72.49c-2.761,0-5-2.239-5-5s2.239-5,5-5h72.49c2.761,0,5,2.239,5,5    S254.231,226.78,251.47,226.78z" style="fill:#E27D44;"/><path d="M459.88,444.25H106.49c-2.761,0-5-2.238-5-5s2.239-5,5-5h353.39c2.762,0,5,2.238,5,5    S462.642,444.25,459.88,444.25z" style="fill:#49BAA5;"/><path d="M333.02,444.25c-2.762,0-5-2.238-5-5v-45.301c0-2.762,2.238-5,5-5s5,2.238,5,5v45.301    C338.02,442.012,335.781,444.25,333.02,444.25z" style="fill:#49BAA5;"/><path d="M369.27,444.25c-2.762,0-5-2.238-5-5v-99.67c0-2.762,2.238-5,5-5s5,2.238,5,5v99.67    C374.27,442.012,372.031,444.25,369.27,444.25z" style="fill:#49BAA5;"/><path d="M142.73,444.25c-2.761,0-5-2.238-5-5v-45.301c0-2.762,2.239-5,5-5s5,2.238,5,5v45.301    C147.73,442.012,145.491,444.25,142.73,444.25z" style="fill:#49BAA5;"/><path d="M178.98,444.25c-2.761,0-5-2.238-5-5v-99.67c0-2.762,2.239-5,5-5s5,2.238,5,5v99.67    C183.98,442.012,181.741,444.25,178.98,444.25z" style="fill:#49BAA5;"/><path d="M251.47,471.439H52.12c-2.761,0-5-2.238-5-5s2.239-5,5-5h199.35c2.761,0,5,2.238,5,5    S254.231,471.439,251.47,471.439z" style="fill:#49BAA5;"/></g></g><g id="Layer_1"/></svg>